<svg xmlns="http://www.w3.org/2000/svg" xmlns:xlink="http://www.w3.org/1999/xlink" viewBox="0 0 352.14 206.72"><defs><style>.cls-1{fill:#009cae;}.cls-2{clip-path:url(#clip-path);}.cls-3{fill:#fff;}.cls-4{fill:#bc4875;}</style><clipPath id="clip-path"><path id="_Masque_" data-name="&lt;Masque&gt;" class="cls-1" d="M352.14,31.07a175.64,175.64,0,1,1-351.28,0c91-.54,175.64.55,175.64.55S274.78,30.53,352.14,31.07Z"/></clipPath></defs><title>Fichier 4</title><g id="Calque_2" data-name="Calque 2"><g id="Calque_1-2" data-name="Calque 1"><path id="_Masque_2" data-name="&lt;Masque&gt;" class="cls-1" d="M352.14,31.07a175.64,175.64,0,1,1-351.28,0c91-.54,175.64.55,175.64.55S274.78,30.53,352.14,31.07Z"/><g class="cls-2"><path class="cls-3" d="M351.86.15A175.92,175.92,0,0,1,175.93,176.08,175.93,175.93,0,0,1,0,.15C91.13-.39,175.93.7,175.93.7S274.37-.39,351.86.15Z"/><path class="cls-4" d="M338,.32a161.5,161.5,0,0,1-323,0c83.66-.5,161.5.5,161.5.5S266.86-.18,338,.32Z"/></g><path d="M70.53,73.67c0,5.47-1.54,7.9-4.47,7.9s-4.47-2.43-4.47-7.9S66.06,62.1,66.06,62.1,70.53,68.2,70.53,73.67Z"/><path d="M129.94,86.22c0,5.47-1.55,7.9-4.48,7.9S121,91.69,121,86.22s4.47-11.56,4.47-11.56S129.94,80.76,129.94,86.22Z"/><path d="M196.65,89.27c0,5.47-1.54,7.9-4.48,7.9s-4.47-2.43-4.47-7.9,4.47-11.57,4.47-11.57S196.65,83.81,196.65,89.27Z"/><path d="M290.54,79.54c0,5.46-1.55,7.9-4.48,7.9s-4.47-2.44-4.47-7.9S286.06,68,286.06,68,290.54,74.07,290.54,79.54Z"/><path d="M155.28,111.38c0,5.46-1.55,7.89-4.48,7.89s-4.47-2.43-4.47-7.89,4.47-11.57,4.47-11.57S155.28,105.91,155.28,111.38Z"/><path d="M250.09,99c0,5.47-1.54,7.9-4.47,7.9s-4.48-2.43-4.48-7.9,4.48-11.56,4.48-11.56S250.09,93.54,250.09,99Z"/></g></g></svg>