<svg xmlns="http://www.w3.org/2000/svg" xmlns:xlink="http://www.w3.org/1999/xlink" viewBox="0 0 469.19 464.43">

    <defs>
    <clipPath id="clip-path"><path id="_Masque_" data-name="&lt;Masque&gt;" d="M469.19,230.4c0,129.25-104.78,234-234,234s-234-104.78-234-234c121.22-.72,234,.73,234,.73S366.11,229.68,469.19,230.4Z" style="fill:#009cae"/></clipPath>
</defs>

    <title>Fichier 6</title>

    <g id="Calque_2" data-name="Calque 2">
        <g id="Calque_1-2" data-name="Calque 1">
            <path id="_Masque_2" data-name="&lt;Masque&gt;" d="M469.19,230.4c0,129.25-104.78,234-234,234s-234-104.78-234-234c121.22-.72,234,.73,234,.73S366.11,229.68,469.19,230.4Z" style="fill:#009cae"/>
            <g style="clip-path:url(#clip-path)">
                <path d="M468.82,189.2c0,129.46-104.95,234.41-234.41,234.41S0,318.66,0,189.2c121.42-.72,234.41.73,234.41.73S365.56,188.48,468.82,189.2Z" style="fill:#fff"/>
                <path d="M450.34,189.43c0,118.84-96.34,215.18-215.18,215.18S20,308.27,20,189.43c111.46-.67,215.17.66,215.17.66S355.56,188.76,450.34,189.43Z" style="fill:#bc4875"/>
            </g>
            <path d="M94,287.16c0,7.28-2.06,10.52-6,10.52s-6-3.24-6-10.52,6-15.41,6-15.41S94,279.87,94,287.16Z"/><path d="M173.12,303.88c0,7.28-2.05,10.52-6,10.52s-6-3.24-6-10.52,6-15.41,6-15.41S173.12,296.6,173.12,303.88Z"/><path d="M262,307.94c0,7.28-2.06,10.52-6,10.52s-6-3.24-6-10.52,6-15.41,6-15.41S262,300.66,262,307.94Z"/><path d="M387.1,295c0,7.28-2.05,10.52-6,10.52s-6-3.24-6-10.52,6-15.41,6-15.41S387.1,287.69,387.1,295Z"/><path d="M206.89,337.39c0,7.29-2.06,10.52-6,10.52s-6-3.23-6-10.52,6-15.41,6-15.41S206.89,330.11,206.89,337.39Z"/><path d="M333.22,320.91c0,7.28-2.06,10.52-6,10.52s-6-3.24-6-10.52,6-15.41,6-15.41S333.22,313.63,333.22,320.91Z"/><path d="M468.82,234.41C468.82,105,363.87,0,234.41,0S0,105,0,234.41c121.42.72,234.41-.73,234.41-.73S365.56,235.13,468.82,234.41Z" style="fill:none"/></g></g></svg>